<svg xmlns="http://www.w3.org/2000/svg" width="1440" height="235" viewBox="0 0 1440 235" role="img">
  <defs>
    <filter id="blur" x="-30%" y="-30%" width="160%" height="160%"><feGaussianBlur stdDeviation="14"/></filter>
    <filter id="blur2" x="-30%" y="-30%" width="160%" height="160%"><feGaussianBlur stdDeviation="3"/></filter>
    <filter id="grain"><feTurbulence type="fractalNoise" baseFrequency="0.8" numOctaves="2" stitchTiles="stitch"/></filter>
    
  </defs>
  <rect x="0" y="0" width="1440" height="230" fill="#080808" stroke="#3A3732" stroke-width="1" rx="12" opacity="1"/>
<text x="24" y="34" font-family="Segoe UI,Arial,sans-serif" font-size="12px" font-weight="600" letter-spacing="3.0px" fill="#F0ECE4" text-anchor="start" opacity="1" >LAB TELEMETRY</text>
<text x="24" y="55" font-family="Segoe UI,Arial,sans-serif" font-size="10px" font-weight="400" letter-spacing="0.4px" fill="#77726E" text-anchor="start" opacity="1" >GitHub activity · generated locally · no third-party stats service</text>
<rect x="24" y="82" width="328" height="96" fill="#0A0A0A" stroke="#32302C" stroke-width="1" rx="8" opacity="1"/>
<text x="42" y="106" font-family="Segoe UI,Arial,sans-serif" font-size="9px" font-weight="600" letter-spacing="1.8px" fill="#77716A" text-anchor="start" opacity="1" >COMMITS</text>
<text x="42" y="143" font-family="Segoe UI,Arial,sans-serif" font-size="24px" font-weight="600" letter-spacing="1.2px" fill="#EFEAE2" text-anchor="start" opacity="1" >412</text>
<text x="42" y="163" font-family="Segoe UI,Arial,sans-serif" font-size="9px" font-weight="700" letter-spacing="1.5px" fill="#B52F35" text-anchor="start" opacity="1" >+12%</text>
<rect x="374" y="82" width="328" height="96" fill="#0A0A0A" stroke="#32302C" stroke-width="1" rx="8" opacity="1"/>
<text x="392" y="106" font-family="Segoe UI,Arial,sans-serif" font-size="9px" font-weight="600" letter-spacing="1.8px" fill="#77716A" text-anchor="start" opacity="1" >REPOSITORIES</text>
<text x="392" y="143" font-family="Segoe UI,Arial,sans-serif" font-size="24px" font-weight="600" letter-spacing="1.2px" fill="#EFEAE2" text-anchor="start" opacity="1" >8</text>
<text x="392" y="163" font-family="Segoe UI,Arial,sans-serif" font-size="9px" font-weight="700" letter-spacing="1.5px" fill="#77716A" text-anchor="start" opacity="1" >+0%</text>
<rect x="724" y="82" width="328" height="96" fill="#0A0A0A" stroke="#32302C" stroke-width="1" rx="8" opacity="1"/>
<text x="742" y="106" font-family="Segoe UI,Arial,sans-serif" font-size="9px" font-weight="600" letter-spacing="1.8px" fill="#77716A" text-anchor="start" opacity="1" >LANGUAGES</text>
<text x="742" y="143" font-family="Segoe UI,Arial,sans-serif" font-size="24px" font-weight="600" letter-spacing="1.2px" fill="#EFEAE2" text-anchor="start" opacity="1" >12</text>
<text x="742" y="163" font-family="Segoe UI,Arial,sans-serif" font-size="9px" font-weight="700" letter-spacing="1.5px" fill="#B52F35" text-anchor="start" opacity="1" >+2</text>
<rect x="1074" y="82" width="328" height="96" fill="#0A0A0A" stroke="#32302C" stroke-width="1" rx="8" opacity="1"/>
<text x="1092" y="106" font-family="Segoe UI,Arial,sans-serif" font-size="9px" font-weight="600" letter-spacing="1.8px" fill="#77716A" text-anchor="start" opacity="1" >LAST ACTIVE</text>
<text x="1092" y="143" font-family="Segoe UI,Arial,sans-serif" font-size="24px" font-weight="600" letter-spacing="1.2px" fill="#EFEAE2" text-anchor="start" opacity="1" >2h ago</text>
<text x="1092" y="163" font-family="Segoe UI,Arial,sans-serif" font-size="9px" font-weight="700" letter-spacing="1.5px" fill="#B52F35" text-anchor="start" opacity="1" >●</text>
<text x="24" y="202" font-family="Segoe UI,Arial,sans-serif" font-size="8px" font-weight="600" letter-spacing="2.0px" fill="#6C6861" text-anchor="start" opacity="1" >ACTIVITY / 14 DAYS</text>
<path d="M M 24 218 L 72 212 L 120 216 L 168 204 L 216 211 L 264 196 L 312 204 L 360 189 L 408 194 L 456 180 L 504 190 L 552 171 L 600 183 L 648 164 L 696 175 L 744 157 L 792 168 L 840 150 L 888 161 L 936 144 L 984 155 L 1032 136 L 1080 145 L 1128 128 L 1176 139 L 1224 120 L 1272 131 L 1320 114 L 1368 122 L 1412 111" fill="none" stroke="#8C877F" stroke-width="1.5" stroke-linecap="round" stroke-linejoin="round" opacity="0.78"/>
<line x1="24" y1="220" x2="1414" y2="220" stroke="#2F2D29" stroke-width="1" opacity="0.7"/>
</svg>