<svg xmlns="http://www.w3.org/2000/svg" width="900" height="300" viewBox="0 0 900 300" role="img">
  <defs>
    <filter id="blur" x="-30%" y="-30%" width="160%" height="160%"><feGaussianBlur stdDeviation="14"/></filter>
    <filter id="blur2" x="-30%" y="-30%" width="160%" height="160%"><feGaussianBlur stdDeviation="3"/></filter>
    <filter id="grain"><feTurbulence type="fractalNoise" baseFrequency="0.8" numOctaves="2" stitchTiles="stitch"/></filter>
    
  </defs>
  <rect x="0" y="0" width="900" height="300" fill="#080808" stroke="#3A3732" stroke-width="1" rx="12" opacity="1"/>
<rect x="24" y="30" width="2" height="86" fill="#B52F35" stroke="none" stroke-width="0" rx="0" opacity="1"/>
<text x="48" y="50" font-family="Segoe UI,Arial,sans-serif" font-size="10px" font-weight="600" letter-spacing="3.3px" fill="#7D7870" text-anchor="start" opacity="1" >PHILOSOPHY</text>
<text x="48" y="109" font-family="Georgia, Times New Roman, serif" font-size="29px" font-weight="500" letter-spacing="0.2px" fill="#F1EDE6" text-anchor="start" opacity="1" >Systems should disappear</text>
<text x="48" y="146" font-family="Georgia, Times New Roman, serif" font-size="29px" font-weight="500" letter-spacing="0.2px" fill="#F1EDE6" text-anchor="start" opacity="1" >when they become intuitive.</text>
<line x1="48" y1="176" x2="89" y2="176" stroke="#B52F35" stroke-width="2" opacity="1"/>
<text x="640" y="61" font-family="Segoe UI,Arial,sans-serif" font-size="9px" font-weight="600" letter-spacing="2.3px" fill="#77726A" text-anchor="end" opacity="1" >LESS COMPLEXITY</text>
<text x="640" y="88" font-family="Segoe UI,Arial,sans-serif" font-size="9px" font-weight="600" letter-spacing="2.3px" fill="#AAA39A" text-anchor="end" opacity="1" >MORE CLARITY</text>
<text x="640" y="115" font-family="Segoe UI,Arial,sans-serif" font-size="9px" font-weight="600" letter-spacing="2.3px" fill="#D4CEC4" text-anchor="end" opacity="1" >BETTER TOOLS</text>
<text x="640" y="142" font-family="Segoe UI,Arial,sans-serif" font-size="9px" font-weight="600" letter-spacing="2.3px" fill="#7B766E" text-anchor="end" opacity="1" >BIGGER IDEAS</text>
<path d="M676 251 C728 220 750 185 790 161 C823 142 850 118 874 88" fill="none" stroke="#98938B" stroke-width="2.2" stroke-linecap="round" stroke-linejoin="round" opacity="0.6"/>
<path d="M748 203 C767 214 787 224 813 229 C837 234 852 246 871 267" fill="none" stroke="#B52F35" stroke-width="1.6" stroke-linecap="round" stroke-linejoin="round" opacity="0.7"/>
<circle cx="829" cy="145" r="28" fill="#B52F35" stroke="none" stroke-width="0" opacity="0.1"/>
<circle cx="829" cy="145" r="18" fill="#080808" stroke="#C2BBB1" stroke-width="1" opacity="0.28"/>
</svg>